<svg xmlns="http://www.w3.org/2000/svg" viewBox="0 0 270.26 238.48"><defs><style>.cls-1,.cls-5{fill:#666;}.cls-2{fill:#e9e4de;}.cls-3{fill:#c3b4ad;}.cls-4{fill:#9b999a;}.cls-5{stroke:#666;stroke-miterlimit:10;stroke-width:1.42px;}.cls-6{fill:#fff;}</style></defs><g id="レイヤー_2" data-name="レイヤー 2"><g id="レイヤー_1のコピー" data-name="レイヤー 1のコピー"><g id="目大きく"><path class="cls-1" d="M202.85,174.17l-.16-1.06c-.09,0-.19-.05-.25,0-.67.34-1.35.67-2,1a109,109,0,0,1-15.33,7,124.17,124.17,0,0,1-14.83,4.39c-2.34.54-4.69,1-7.08,1.36-1.64.21-3.26.54-4.89.8-.44.08-.9.08-1.42.13a3.83,3.83,0,0,0-.25.82c-.15,1.55-.24,3.11-.39,4.66s-.36,3.09-.51,4.64-.24,3-.39,4.5-.33,2.89-.5,4.33c0,.15,0,.31,0,.46-.12,1.5-.23,3-.38,4.5s-.33,3-.49,4.49c0,.05,0,.1,0,.15-.12,1.75-.21,3.51-.38,5.26-.16,1.6-.23,3.2-.5,4.79-.19,1.13-.27,2.29-.4,3.47,1.32,1,2.66,2,3.92,3s2.37,2.17,3.52,3.23a2.71,2.71,0,0,1,0,1.79l-.49.42a2.48,2.48,0,0,1-2.67-.61c-.36-.35-.73-.7-1.08-1.06a29.26,29.26,0,0,0-5.09-4l-.13-.08a2.31,2.31,0,0,1-1.34-2.74c.19-1.24.33-2.49.49-3.73.05-.4.09-.8.15-1.2.27-1.84.21-3.71.52-5.54a1.51,1.51,0,0,0,0-.3c.13-1.81.24-3.61.4-5.42.12-1.39.32-2.79.49-4.18l0-.45c.13-1.5.24-3,.39-4.51s.33-2.79.49-4.18c0-.15,0-.3,0-.45.11-1.81.35-3.6.58-5.39.19-1.55.36-3.09.6-4.63a5,5,0,0,0,0-1.44c-.17-.07-.26-.15-.34-.15a27.34,27.34,0,0,0-3,.12,16.06,16.06,0,0,1-1.95.18c-1.51,0-3,0-4.53.12a42.85,42.85,0,0,1-4.67.14c-.9,0-1.8-.15-2.7-.18-1.16,0-2.32,0-3.48-.08-2-.13-4-.22-6-.52-.69-.1-1.4-.07-2.18-.11a3.49,3.49,0,0,0-.16.72q0,7.25.08,14.5c.29,2,.08,4,.32,6a48,48,0,0,0,.45,4.94c0,.1,0,.2,0,.3.13,1.66.23,3.31.39,5,.14,1.45.33,2.89.49,4.34,0,.3,0,.6,0,.9a18.6,18.6,0,0,0,.49,3.57,2.19,2.19,0,0,1-1,2.58,28,28,0,0,0-4.47,3.81c-.84.87-1.7,1.72-2.56,2.57a4.3,4.3,0,0,1-.68.6,4.82,4.82,0,0,1-.78.35,1.77,1.77,0,0,1-1.77-1.62,2.5,2.5,0,0,1,.75-1.43c1.61-1.59,3.2-3.2,4.84-4.77.68-.66,1.46-1.22,2.23-1.84a10.55,10.55,0,0,0-.1-2.11c-.06-.65-.12-1.3-.23-1.94-.28-1.64-.19-3.31-.52-4.94,0-.1,0-.2,0-.3-.13-1.61-.25-3.21-.38-4.81-.16-1.8-.36-3.6-.49-5.4-.08-1.06-.07-2.12-.09-3.17-.08-3.83-.42-7.65-.21-11.47.1-1.91.15-3.82.19-5.73,0-.34,0-.68,0-1.09l-1.37-.21-1.19-.2c-.69-.11-1.39-.2-2.07-.32a145.69,145.69,0,0,1-14.76-3.46,129,129,0,0,1-14.42-5.19A109.52,109.52,0,0,1,67,166.41c-1.64-1.17-3.2-2.44-4.88-3.73a39.26,39.26,0,0,1-5.41-.6c-2.15-.25-4.25-.71-6.38-1a32,32,0,0,1-4.1-.93c-4.18-1.23-8.37-2.44-12.48-3.87a75,75,0,0,1-10.44-4.66,72.84,72.84,0,0,1-7.51-4.47,38.15,38.15,0,0,1-7.34-6.68A35.08,35.08,0,0,1,1.8,128.36a41.06,41.06,0,0,1-1.21-5.27,46,46,0,0,1-.52-10.22,32.15,32.15,0,0,1,.67-5.07c.45-2.21,1-4.4,1.65-6.56a53.27,53.27,0,0,1,1.88-5.08,69.73,69.73,0,0,1,7.1-12.75A61.92,61.92,0,0,1,18.5,75,67.7,67.7,0,0,1,31,65.36a86.18,86.18,0,0,1,8.38-4.46,64.55,64.55,0,0,1,11.25-4.21,27.37,27.37,0,0,1,7-1.07,7.14,7.14,0,0,1,3.66.87,12.1,12.1,0,0,0,.7-2.91,55.92,55.92,0,0,1,2.34-7.93,59.9,59.9,0,0,1,7.58-14,63.39,63.39,0,0,1,5.28-6.4,66.77,66.77,0,0,1,6.47-6.11,80.19,80.19,0,0,1,9.48-6.69,83.49,83.49,0,0,1,9.78-5,87.79,87.79,0,0,1,11.48-4c2.7-.74,5.43-1.39,8.2-1.86,2.07-.35,4.14-.69,6.24-.93,1.1-.12,2.2-.15,3.29-.28A91.23,91.23,0,0,1,144,.08a44.71,44.71,0,0,1,6,.52c1.09.16,2.2.22,3.29.37,1.29.19,2.58.37,3.85.64,2,.44,4,.87,6,1.38a87.05,87.05,0,0,1,10.72,3.48,80.87,80.87,0,0,1,16,8.57,82.15,82.15,0,0,1,6.79,5.27,65,65,0,0,1,4.79,4.6,64,64,0,0,1,9.4,12.7,57.73,57.73,0,0,1,5,11.77,56.1,56.1,0,0,1,1.47,6.28A36.87,36.87,0,0,1,218,61.2c0,.54.13,1.09.19,1.64a7.77,7.77,0,0,0,.08,1.4,1,1,0,0,0,.81.17c.9,0,1.81,0,2.71-.14a6.43,6.43,0,0,1,1.64,0,15.44,15.44,0,0,0,1.66.12,44.74,44.74,0,0,1,23.35,7.88,47.25,47.25,0,0,1,9.35,8.51,52.53,52.53,0,0,1,9.69,17.58,58,58,0,0,1,2.8,20,57.75,57.75,0,0,1-.58,7.2,69.1,69.1,0,0,1-2.61,11.12,42.68,42.68,0,0,1-1.54,4.08,64.18,64.18,0,0,1-6.13,11.4,60.35,60.35,0,0,1-9.84,11.2,54.53,54.53,0,0,1-14.44,9.2,48.78,48.78,0,0,1-9.59,3c-1.42.29-2.86.48-4.3.68a43.32,43.32,0,0,1-8.89.16,35.66,35.66,0,0,1-8-1.37A2.72,2.72,0,0,1,202.85,174.17Zm11.9-106.66a2.87,2.87,0,0,1,0-2.12,3.54,3.54,0,0,0,.14-1.18,49.78,49.78,0,0,0-.52-6.45,48.68,48.68,0,0,0-1.6-7.49,54.78,54.78,0,0,0-4.34-10.41,60.85,60.85,0,0,0-9.62-13.09c-1.07-1.13-2.26-2.14-3.38-3.23a49.83,49.83,0,0,0-4.75-4,77.74,77.74,0,0,0-13.28-8A83.3,83.3,0,0,0,162.57,6.2a80.79,80.79,0,0,0-9.86-2c-1-.13-1.9-.18-2.84-.35-1.58-.29-3.2-.21-4.78-.49-4.43,0-8.86-.27-13.27.23-1,.12-2,.17-3,.28-2.09.23-4.16.58-6.23.95A84.76,84.76,0,0,0,95.24,15,69.3,69.3,0,0,0,78.68,28.44a65.39,65.39,0,0,0-6.21,8.15,4.93,4.93,0,0,0-.3.69c.26.24.48.44.69.65,1.3,1.34,2.66,2.62,3.89,4,1.82,2.08,3.77,4,5.76,6,.33.32.66.62,1,.91a50.49,50.49,0,0,0,7.52,5c1.14.63,2.24,1.34,3.35,2a4.75,4.75,0,0,1,2,2.19A4.08,4.08,0,0,1,95,62.13a11.37,11.37,0,0,1-2.48,1.7,23.09,23.09,0,0,1-9.1,2.37c-1.4.11-2.82,0-4.23,0a25.06,25.06,0,0,1-5.65-.78,29.55,29.55,0,0,1-4.83-1.64l-3.47-1.43a53.26,53.26,0,0,0-5.49,4.53,74.26,74.26,0,0,0-6,6.16,70.4,70.4,0,0,0-6.28,8.48,57,57,0,0,0-6.29,13.63,49.77,49.77,0,0,0-1.87,8.36,46.39,46.39,0,0,0-.53,5.39,54.59,54.59,0,0,0,.23,7.23c.2,1.54.37,3.09.64,4.62a53.93,53.93,0,0,0,3.57,11.93,66.72,66.72,0,0,0,11.51,18.13,68.56,68.56,0,0,0,5.56,5.75c2.09,1.89,4.21,3.74,6.44,5.47A98.76,98.76,0,0,0,82.32,172,114.19,114.19,0,0,0,95,177.52c3.77,1.38,7.58,2.59,11.46,3.6,3.15.83,6.31,1.6,9.53,2.12,1.43.23,2.85.54,4.28.79.84.14,1.69.24,2.53.34,1.25.13,2.52.15,3.74.39,1.64.32,3.32.12,4.94.5,2.57.06,5.13.1,7.69.26a27.78,27.78,0,0,0,4.08,0c1.1-.1,2.2-.15,3.31-.18s2,0,3-.1a30.16,30.16,0,0,1,3.15-.25,2.22,2.22,0,0,0,.45,0c1.37-.37,2.8-.19,4.18-.51,1-.23,2.1-.21,3.13-.41,2.46-.46,4.93-.86,7.37-1.39,3.14-.67,6.25-1.44,9.31-2.36a113.63,113.63,0,0,0,15.06-5.64,102.22,102.22,0,0,0,10.63-5.68,87.55,87.55,0,0,0,14-10.66,67.84,67.84,0,0,0,6.85-7.43,64.09,64.09,0,0,0,8.5-13.85,52.5,52.5,0,0,0,2.28-6.05,50.28,50.28,0,0,0,1.92-8.5,48.11,48.11,0,0,0,.53-6c0-1.11,0-2.22,0-3.32,0-.71,0-1.42-.09-2.12-.13-1.24-.35-2.48-.47-3.73a33.6,33.6,0,0,0-.8-4.44A57.82,57.82,0,0,0,232,92.17a66.23,66.23,0,0,0-7.24-12.32c-1.58-2.15-3.31-4.18-5.08-6.17-.73-.83-1.53-1.59-2.29-2.37-.42,0-.77.11-1.11.11a1.54,1.54,0,0,1-1.66-1.58C214.6,69.14,214.7,68.44,214.75,67.51Zm3.71.24c.39.41.59.63.81.84a80.48,80.48,0,0,1,7.21,8.11,71.18,71.18,0,0,1,7,11,62.29,62.29,0,0,1,4.87,12.61,53.11,53.11,0,0,1,1.36,7.09,52.49,52.49,0,0,1,.52,7.2c0,1.6,0,3.21-.2,4.81s-.39,3.39-.65,5.08a51.92,51.92,0,0,1-1.75,7.29,62.18,62.18,0,0,1-5.84,13,70.2,70.2,0,0,1-9,12.05,79.41,79.41,0,0,1-5.73,5.58,89.51,89.51,0,0,1-9.43,7.26c-.8.53-1.61,1-2.41,1.55-.16.11-.34.22-.26.47,0,0,.06.09.1.1a35.63,35.63,0,0,0,8.58,1.36,45.73,45.73,0,0,0,10.05-.6,49,49,0,0,0,8.23-2.3,50.82,50.82,0,0,0,17.58-11.39c1.11-1.09,2.13-2.28,3.18-3.43a47.11,47.11,0,0,0,4.46-5.88,56.56,56.56,0,0,0,5.12-9.55A61,61,0,0,0,266,127.86c.28-1.48.46-3,.67-4.46.14-1,.19-2,.25-3s.17-2,.2-3a27.18,27.18,0,0,0-.15-3.61c-.16-1.4-.14-2.8-.33-4.2-.29-2.09-.66-4.16-1.14-6.21a51.83,51.83,0,0,0-1.9-6.18,47,47,0,0,0-4.21-8.65,45.25,45.25,0,0,0-9.13-10.77,44,44,0,0,0-7.55-5.22A39.27,39.27,0,0,0,228.63,68c-1.67-.45-3.4-.25-5.09-.48S220.35,67.76,218.46,67.75ZM59.52,59.21a1.77,1.77,0,0,0-1.42-.54,19.09,19.09,0,0,0-5,.75,65.53,65.53,0,0,0-11.46,4,75.62,75.62,0,0,0-18,11.25,59.74,59.74,0,0,0-7.15,7.34,58,58,0,0,0-5.31,7.68A69.22,69.22,0,0,0,7,98.22a54.62,54.62,0,0,0-2.63,8.47,32.37,32.37,0,0,0-.92,5.78A44.15,44.15,0,0,0,3.9,123a37.74,37.74,0,0,0,1.2,5,32,32,0,0,0,7.71,12.46A35,35,0,0,0,18,144.72c1.87,1.27,3.84,2.38,5.83,3.47a67.55,67.55,0,0,0,10.39,4.74c2.61.9,5.26,1.65,7.87,2.52a68.17,68.17,0,0,0,12.7,3c.79.11,1.57.29,2.36.43.16,0,.35.17.47-.13-.17-.17-.33-.36-.51-.54a82.53,82.53,0,0,1-7.67-8.51,74.53,74.53,0,0,1-7.12-11,61.88,61.88,0,0,1-3.85-9,50.26,50.26,0,0,1-1.64-5.79c-.38-1.82-.73-3.63-1-5.48a42.88,42.88,0,0,1-.46-4.79,52,52,0,0,1,.18-7.38c.21-1.65.37-3.29.65-4.92a59,59,0,0,1,1.52-6.44A62,62,0,0,1,46,77.72a64.91,64.91,0,0,1,4.86-6.34A80.74,80.74,0,0,1,59.29,63c.42-.36.83-.74,1.23-1.11a.74.74,0,0,0,.2-.9A1.65,1.65,0,0,1,59.52,59.21Zm5-1a6.9,6.9,0,0,0,2,1.16c1.85.77,3.7,1.55,5.57,2.27a19.09,19.09,0,0,0,5.55,1.25,33,33,0,0,0,7.82-.21,24.26,24.26,0,0,0,3.93-1,11.44,11.44,0,0,0,3-1.63,1.36,1.36,0,0,0,.72-1c-.27-.21-.56-.49-.89-.7-1.51-.9-3-1.8-4.54-2.68A46.72,46.72,0,0,1,74.93,44.71a45.49,45.49,0,0,0-3.81-4.28c-.17-.16-.3-.4-.69-.36A52.17,52.17,0,0,0,64.5,58.18Z"/><path class="cls-2" d="M214.75,67.51c-.05.93-.15,1.63-.12,2.33a1.54,1.54,0,0,0,1.66,1.58c.34,0,.69-.07,1.11-.11.76.78,1.56,1.54,2.29,2.37,1.77,2,3.5,4,5.08,6.17A66.23,66.23,0,0,1,232,92.17a57.82,57.82,0,0,1,3.59,10.68,33.6,33.6,0,0,1,.8,4.44c.12,1.25.34,2.49.47,3.73.08.7.08,1.41.09,2.12,0,1.1,0,2.21,0,3.32a48.11,48.11,0,0,1-.53,6,50.28,50.28,0,0,1-1.92,8.5,52.5,52.5,0,0,1-2.28,6.05,64.09,64.09,0,0,1-8.5,13.85,67.84,67.84,0,0,1-6.85,7.43,87.55,87.55,0,0,1-14,10.66,102.22,102.22,0,0,1-10.63,5.68,113.63,113.63,0,0,1-15.06,5.64c-3.06.92-6.17,1.69-9.31,2.36-2.44.53-4.91.93-7.37,1.39-1,.2-2.11.18-3.13.41-1.38.32-2.81.14-4.18.51a2.22,2.22,0,0,1-.45,0,30.16,30.16,0,0,0-3.15.25c-1,.13-2,.07-3,.1s-2.21.08-3.31.18a27.78,27.78,0,0,1-4.08,0c-2.56-.16-5.12-.2-7.69-.26-1.62-.38-3.3-.18-4.94-.5-1.22-.24-2.49-.26-3.74-.39-.84-.1-1.69-.2-2.53-.34-1.43-.25-2.85-.56-4.28-.79-3.22-.52-6.38-1.29-9.53-2.12-3.88-1-7.69-2.22-11.46-3.6A114.19,114.19,0,0,1,82.32,172a98.76,98.76,0,0,1-15.64-9.91c-2.23-1.73-4.35-3.58-6.44-5.47a68.56,68.56,0,0,1-5.56-5.75,66.72,66.72,0,0,1-11.51-18.13,53.93,53.93,0,0,1-3.57-11.93c-.27-1.53-.44-3.08-.64-4.62a54.59,54.59,0,0,1-.23-7.23,46.39,46.39,0,0,1,.53-5.39,49.77,49.77,0,0,1,1.87-8.36,57,57,0,0,1,6.29-13.63,70.4,70.4,0,0,1,6.28-8.48,74.26,74.26,0,0,1,6-6.16,53.26,53.26,0,0,1,5.49-4.53l3.47,1.43a29.55,29.55,0,0,0,4.83,1.64,25.06,25.06,0,0,0,5.65.78c1.41,0,2.83.07,4.23,0a23.09,23.09,0,0,0,9.1-2.37A11.37,11.37,0,0,0,95,62.13a4.08,4.08,0,0,0,1.43-4.07,4.75,4.75,0,0,0-2-2.19c-1.11-.68-2.21-1.39-3.35-2a50.49,50.49,0,0,1-7.52-5c-.35-.29-.68-.59-1-.91-2-1.92-3.94-3.89-5.76-6-1.23-1.4-2.59-2.68-3.89-4-.21-.21-.43-.41-.69-.65a4.93,4.93,0,0,1,.3-.69,65.39,65.39,0,0,1,6.21-8.15A69.3,69.3,0,0,1,95.24,15,84.76,84.76,0,0,1,122.59,4.84c2.07-.37,4.14-.72,6.23-.95,1-.11,2-.16,3-.28,4.41-.5,8.84-.23,13.27-.23,1.58.28,3.2.2,4.78.49.94.17,1.89.22,2.84.35a80.79,80.79,0,0,1,9.86,2,83.3,83.3,0,0,1,14.81,5.39,77.74,77.74,0,0,1,13.28,8,49.83,49.83,0,0,1,4.75,4c1.12,1.09,2.31,2.1,3.38,3.23a60.85,60.85,0,0,1,9.62,13.09,54.78,54.78,0,0,1,4.34,10.41,48.68,48.68,0,0,1,1.6,7.49,49.78,49.78,0,0,1,.52,6.45,3.54,3.54,0,0,1-.14,1.18A2.87,2.87,0,0,0,214.75,67.51Zm-43.9-.07a21.55,21.55,0,0,0-.67-5.62,22.36,22.36,0,0,0-8.28-12.76,21.58,21.58,0,0,0-11.26-4.24,24.21,24.21,0,0,0-7.19.52,27.38,27.38,0,0,0-12,6,30.57,30.57,0,0,0-6.63,7.78,29.8,29.8,0,0,0-4.14,12.31,26.49,26.49,0,0,0,.17,6.77,25.61,25.61,0,0,0,2,6.61,22.14,22.14,0,0,0,5.78,7.64A17.79,17.79,0,0,0,133,95.32a20.82,20.82,0,0,0,8.71,2.09,31.58,31.58,0,0,0,5.4-.32,26.4,26.4,0,0,0,7.1-2.38,30.29,30.29,0,0,0,16.61-27.27ZM172.64,43l-1.21.07-.84.91A2,2,0,0,0,171,46a1.72,1.72,0,0,0,1.12.48l.83-.42a2.81,2.81,0,0,0,.43-2.4Zm-9-3.89h-1.14l-.72.78V41l1,1c1.28,0,1.43-.08,2-1.31A2,2,0,0,0,163.62,39.07Z"/><path class="cls-3" d="M218.46,67.75c1.89,0,3.48-.46,5.08-.24s3.42,0,5.09.48a39.27,39.27,0,0,1,14.06,4.57,44,44,0,0,1,7.55,5.22,45.25,45.25,0,0,1,9.13,10.77,47,47,0,0,1,4.21,8.65,51.83,51.83,0,0,1,1.9,6.18c.48,2.05.85,4.12,1.14,6.21.19,1.4.17,2.8.33,4.2a27.18,27.18,0,0,1,.15,3.61c0,1-.15,2-.2,3s-.11,2-.25,3c-.21,1.49-.39,3-.67,4.46a61,61,0,0,1-3.69,12.21,56.56,56.56,0,0,1-5.12,9.55,47.11,47.11,0,0,1-4.46,5.88c-1.05,1.15-2.07,2.34-3.18,3.43A50.82,50.82,0,0,1,232,170.32a49,49,0,0,1-8.23,2.3,45.73,45.73,0,0,1-10.05.6,35.63,35.63,0,0,1-8.58-1.36s-.07-.06-.1-.1c-.08-.25.1-.36.26-.47.8-.52,1.61-1,2.41-1.55a89.51,89.51,0,0,0,9.43-7.26,79.41,79.41,0,0,0,5.73-5.58,70.2,70.2,0,0,0,9-12.05,62.18,62.18,0,0,0,5.84-13,51.92,51.92,0,0,0,1.75-7.29c.26-1.69.46-3.38.65-5.08s.18-3.21.2-4.81a52.49,52.49,0,0,0-.52-7.2,53.11,53.11,0,0,0-1.36-7.09,62.29,62.29,0,0,0-4.87-12.61,71.18,71.18,0,0,0-7-11,80.48,80.48,0,0,0-7.21-8.11C219.05,68.38,218.85,68.16,218.46,67.75Z"/><path class="cls-3" d="M59.52,59.21a1.65,1.65,0,0,0,1.2,1.73.74.74,0,0,1-.2.9c-.4.37-.81.75-1.23,1.11a80.74,80.74,0,0,0-8.42,8.43A64.91,64.91,0,0,0,46,77.72a62,62,0,0,0-8.22,17.19,59,59,0,0,0-1.52,6.44c-.28,1.63-.44,3.27-.65,4.92a52,52,0,0,0-.18,7.38,42.88,42.88,0,0,0,.46,4.79c.24,1.85.59,3.66,1,5.48a50.26,50.26,0,0,0,1.64,5.79,61.88,61.88,0,0,0,3.85,9,74.53,74.53,0,0,0,7.12,11,82.53,82.53,0,0,0,7.67,8.51c.18.18.34.37.51.54-.12.3-.31.16-.47.13-.79-.14-1.57-.32-2.36-.43a68.17,68.17,0,0,1-12.7-3c-2.61-.87-5.26-1.62-7.87-2.52a67.55,67.55,0,0,1-10.39-4.74c-2-1.09-4-2.2-5.83-3.47a35,35,0,0,1-5.23-4.31A32,32,0,0,1,5.1,128a37.74,37.74,0,0,1-1.2-5,44.15,44.15,0,0,1-.5-10.52,32.37,32.37,0,0,1,.92-5.78A54.62,54.62,0,0,1,7,98.22a69.22,69.22,0,0,1,4.23-8.49,58,58,0,0,1,5.31-7.68,59.74,59.74,0,0,1,7.15-7.34,75.62,75.62,0,0,1,18-11.25,65.53,65.53,0,0,1,11.46-4,19.09,19.09,0,0,1,5-.75A1.77,1.77,0,0,1,59.52,59.21Z"/><path class="cls-4" d="M64.5,58.18a52.17,52.17,0,0,1,5.93-18.11c.39,0,.52.2.69.36a45.49,45.49,0,0,1,3.81,4.28A46.72,46.72,0,0,0,87.66,55.66c1.52.88,3,1.78,4.54,2.68.33.21.62.49.89.7a1.36,1.36,0,0,1-.72,1,11.44,11.44,0,0,1-3,1.63,24.26,24.26,0,0,1-3.93,1,33,33,0,0,1-7.82.21A19.09,19.09,0,0,1,72,61.61c-1.87-.72-3.72-1.5-5.57-2.27A6.9,6.9,0,0,1,64.5,58.18Z"/><path class="cls-1" d="M170.85,67.44a30.29,30.29,0,0,1-16.61,27.27,26.4,26.4,0,0,1-7.1,2.38,31.58,31.58,0,0,1-5.4.32A20.82,20.82,0,0,1,133,95.32a17.79,17.79,0,0,1-4.41-2.87,22.14,22.14,0,0,1-5.78-7.64,25.61,25.61,0,0,1-2-6.61,26.49,26.49,0,0,1-.17-6.77,29.8,29.8,0,0,1,4.14-12.31,30.57,30.57,0,0,1,6.63-7.78,27.38,27.38,0,0,1,12-6,24.21,24.21,0,0,1,7.19-.52,21.58,21.58,0,0,1,11.26,4.24,22.36,22.36,0,0,1,8.28,12.76A21.55,21.55,0,0,1,170.85,67.44Zm-47,7.75a18.09,18.09,0,0,0,1.25,6.57,17.8,17.8,0,0,0,6.14,8.57,19.57,19.57,0,0,0,5.41,2.93,23,23,0,0,0,5.75,1,9.44,9.44,0,0,0,1.5-.09c.35,0,.7-.1,1-.1a11.89,11.89,0,0,0,3-.48A25.55,25.55,0,0,0,159.46,87a28.47,28.47,0,0,0,3.89-4.8,27.54,27.54,0,0,0,4.33-13.45,21.92,21.92,0,0,0-.32-4.36,19.61,19.61,0,0,0-1.42-5.05,19,19,0,0,0-4.21-6.19A17.7,17.7,0,0,0,156,49.43a16.38,16.38,0,0,0-5.08-1.29,21,21,0,0,0-5.71.2,25.22,25.22,0,0,0-16.52,10.92A26.57,26.57,0,0,0,123.88,75.19Z"/><path class="cls-5" d="M172.64,43l.77.72a2.81,2.81,0,0,1-.43,2.4l-.83.42A1.72,1.72,0,0,1,171,46a2,2,0,0,1-.44-2.08l.84-.91Z"/><path class="cls-5" d="M163.62,39.07a2,2,0,0,1,1.07,1.59c-.54,1.23-.69,1.34-2,1.31l-1-1V39.85l.72-.78Z"/><path class="cls-6" d="M123.88,75.19a26.57,26.57,0,0,1,4.76-15.93,25.22,25.22,0,0,1,16.52-10.92,21,21,0,0,1,5.71-.2A16.38,16.38,0,0,1,156,49.43a17.7,17.7,0,0,1,5.78,3.76,19,19,0,0,1,4.21,6.19,19.61,19.61,0,0,1,1.42,5.05,21.92,21.92,0,0,1,.32,4.36,27.54,27.54,0,0,1-4.33,13.45,28.47,28.47,0,0,1-3.89,4.8A25.55,25.55,0,0,1,148,93.59a11.89,11.89,0,0,1-3,.48c-.35,0-.7.07-1,.1a9.44,9.44,0,0,1-1.5.09,23,23,0,0,1-5.75-1,19.57,19.57,0,0,1-5.41-2.93,17.8,17.8,0,0,1-6.14-8.57A18.09,18.09,0,0,1,123.88,75.19Zm30.81,6.73a5.49,5.49,0,0,0-1.27.09,9.76,9.76,0,0,0-4.19,2.54,3.54,3.54,0,0,0-1.1,3c0,.09.06.19.11.37l.65.66a1.82,1.82,0,0,0,1.79-.38l.52-1.31a5.46,5.46,0,0,1,2.19-1.57,5,5,0,0,0,1.73-1.15,3.66,3.66,0,0,0,.28-.45l-.07-1.16Z"/><path class="cls-1" d="M154.69,81.92l.64.63.07,1.16a3.66,3.66,0,0,1-.28.45,5,5,0,0,1-1.73,1.15,5.46,5.46,0,0,0-2.19,1.57l-.52,1.31a1.82,1.82,0,0,1-1.79.38l-.65-.66c-.05-.18-.09-.28-.11-.37a3.54,3.54,0,0,1,1.1-3A9.76,9.76,0,0,1,153.42,82,5.49,5.49,0,0,1,154.69,81.92Z"/></g></g></g></svg>