<svg xmlns="http://www.w3.org/2000/svg" viewBox="0 0 309.86 276.2"><defs><style>.cls-1{fill:#e9e4de;}.cls-2{fill:#c3b4ad;}.cls-3{fill:#fff;}.cls-4,.cls-6{fill:#666;}.cls-5{fill:#9b999a;}.cls-6{stroke:#666;stroke-miterlimit:10;stroke-width:1.42px;}</style></defs><g id="レイヤー_2" data-name="レイヤー 2"><g id="レイヤー_1のコピー" data-name="レイヤー 1のコピー"><path class="cls-1" d="M151.15,230c-.58,0-.83,0-1.07,0-1-.11-2.09-.22-3.13-.37s-2-.35-3-.5c-1.73-.26-3.45-.57-5.18-.85-2.87-.45-5.72-1-8.55-1.65-3.72-.81-7.41-1.76-11.09-2.71-2.13-.55-4.24-1.2-6.35-1.85a3.53,3.53,0,0,1-1.52-.62c-.13-.13-.37-.14-.56-.2-4.16-1.29-8.26-2.79-12.32-4.38a178.37,178.37,0,0,1-18.06-8.28q-6.39-3.39-12.47-7.32c-3.3-2.14-6.5-4.39-9.61-6.79-2.3-1.78-4.53-3.66-6.72-5.6-2.68-2.37-5.21-4.89-7.68-7.48a97.4,97.4,0,0,1-12.28-16.2,74.66,74.66,0,0,1-7.44-16.59,58.6,58.6,0,0,1-2-8.79c-.23-1.59-.42-3.18-.61-4.78a59.19,59.19,0,0,1-.21-7.53,51.81,51.81,0,0,1,.52-5.55,61.35,61.35,0,0,1,4.21-15.64c.79-1.84,1.67-3.65,2.53-5.46a4,4,0,0,0,.57-1.55l-1.5-2.77-.48,0a1.23,1.23,0,0,1-.22-.15,49,49,0,0,1-8.32-12.87,43.91,43.91,0,0,1-3.13-10c-.25-1.38-.43-2.77-.61-4.16a41.3,41.3,0,0,1-.21-6.48c.05-1.65.28-3.29.49-4.94a45.73,45.73,0,0,1,1.24-6,48.6,48.6,0,0,1,2.4-7A57.72,57.72,0,0,1,24,35.42a53.74,53.74,0,0,1,5.19-6.65c1.23-1.33,2.45-2.68,3.75-3.94a73.83,73.83,0,0,1,7.77-6.45,78,78,0,0,1,14-8A79.31,79.31,0,0,1,68.18,5.74c2.28-.57,4.6-1,6.91-1.44,1-.2,2.11-.17,3.13-.41,1.53-.36,3.11-.11,4.63-.5a2.68,2.68,0,0,1,.75,0c3.18,0,6.35,0,9.52,0,.85,0,1.7.17,2.55.24a17.78,17.78,0,0,1,2.39.25c1,.22,2,.23,3,.4,1.72.31,3.45.62,5.15,1a68.67,68.67,0,0,1,11.7,3.82,62.05,62.05,0,0,1,12.55,7.14,59.06,59.06,0,0,1,5.45,4.54,5.55,5.55,0,0,0,.5.38,3.78,3.78,0,0,1-.08,1.8,41.55,41.55,0,0,1-2.45,7,81,81,0,0,1-5.58,10.17q-3.07,4.83-6.07,9.72c-.68,1.11-1.22,2.3-1.82,3.47-.13.26-.2.56-.32.84a3.64,3.64,0,0,0,2.2,4.79,6.69,6.69,0,0,0,4,.44,19.77,19.77,0,0,0,4.56-1.48,36.76,36.76,0,0,0,10.3-7.26,47.58,47.58,0,0,0,6.65-8.18c.21-.33.45-.64.63-.91.39,0,.38.23.5.37a1.56,1.56,0,0,0,2.48.22c.46-.39.9-.81,1.38-1.17a12.52,12.52,0,0,1,5.49-2.3,20.65,20.65,0,0,1,5.71-.16A34.89,34.89,0,0,1,171.12,40,66.82,66.82,0,0,1,180,43.66a118.66,118.66,0,0,1,15.27,9.09c3.47,2.41,6.84,5,10.14,7.6s6.68,5.49,9.91,8.38c3,2.71,6,5.48,8.94,8.34,1.58,1.55,3.21,3.05,4.76,4.63,2.4,2.44,4.79,4.9,7.12,7.41q4.2,4.53,8.29,9.19c2.51,2.88,4.93,5.84,7.39,8.77,3.52,4.2,6.89,8.52,10.21,12.88q5.69,7.44,11,15.14c3,4.38,6,8.81,8.82,13.32q3.28,5.24,6.41,10.57,4.89,8.33,9.23,17a66.82,66.82,0,0,1,3.7,7.9c1.06,2.33,2.11,4.66,3.15,7,.56,1.28,1.08,2.58,1.66,4a2.28,2.28,0,0,1-.62.13c-1-.12-2.1-.25-3.14-.39l-3.41-.53-4.89-.8c-.89-.14-1.78-.28-2.68-.37a13.47,13.47,0,0,0-1.55,0,1.93,1.93,0,0,0-1.12,1.79c-1.28,1.14-2.52,2.32-3.84,3.4q-4,3.27-8.15,6.22c-2.47,1.73-5,3.34-7.62,4.88q-5.12,3-10.51,5.58c-3.91,1.83-7.87,3.55-11.92,5-1.42.52-2.88.92-4.24,1.55a35.54,35.54,0,0,1-4.08,1.48c-4.15,1.34-8.35,2.49-12.59,3.5-2.87.69-5.76,1.33-8.66,1.85-2.12.37-4.24.77-6.37,1.06s-4.16.62-6.25.86c-1.25.14-2.49.34-3.73.51l-.15,0-4.8.37c-1,.08-2.1.19-3.15.26a24,24,0,0,0-3.16.24,10,10,0,0,1-1.65.06c-1.87,0-3.74,0-5.59.11a47.51,47.51,0,0,1-6.64.1c-2.31-.13-4.62-.11-6.91-.22l-1.57-.9-1.29.4a39.27,39.27,0,0,1-7.08-1.56,44.58,44.58,0,0,1-13.8-7.24,61.63,61.63,0,0,1-8.62-8,58.32,58.32,0,0,1-8.73-13,51.53,51.53,0,0,1-4.06-11.62c-.32-1.42-.49-2.86-.69-4.31a39.07,39.07,0,0,1-.2-5.72c0-.6.15-1.19.18-1.79s0-1.3,0-2a3.9,3.9,0,0,0-.43-.54,1.52,1.52,0,0,0-2.57.55,1.92,1.92,0,0,0-.21.72c0,1.56-.36,3.09-.33,4.66.05,2.06.28,4.1.53,6.15a46.23,46.23,0,0,0,1.19,5.73,44.82,44.82,0,0,0,2,6,58.57,58.57,0,0,0,5.68,10.62,56.46,56.46,0,0,0,6.83,8.43c1.39,1.38,2.74,2.81,4.2,4.12a46.42,46.42,0,0,0,7,5.21C148,228.2,149.44,229,151.15,230ZM146.9,51c-.14-.12-.37-.32-.61-.51a1.31,1.31,0,0,0-1.41-.15,2,2,0,0,0-1.09,1.18c-.43,1.07-.88,2.14-1.26,3.22a99.29,99.29,0,0,0-5,19.18c-.3,2.09-.54,4.18-.75,6.27s-.25,4.42-.28,6.63c0,1.3.16,2.61.15,3.91,0,2,.26,4,.45,6,.15,1.64.52,3.26.79,4.89a67.31,67.31,0,0,0,2.07,8.77,80.16,80.16,0,0,0,7.93,18,88.38,88.38,0,0,0,12.38,16.11c2.07,2.14,4.28,4.12,6.54,6s4.37,3.54,6.67,5.17a106.63,106.63,0,0,0,19,10.71,119.34,119.34,0,0,0,12.23,4.61q5.37,1.71,10.87,3c1.95.44,3.91.85,5.88,1.2,1.58.29,3.18.43,4.75.71.8.14,1.61.16,2.38.33a34.19,34.19,0,0,0,3.88.46,42.55,42.55,0,0,0,5.86.42,4,4,0,0,1,.6.05c.55.05,1.1.16,1.65.16,4.53,0,9.06,0,13.59,0,1.55,0,3.11-.16,4.66-.27s3.1-.23,4.65-.34l.3-.05,4-.5c1-.13,2.09-.22,3.13-.39,1.68-.26,3.35-.57,5-.86.1,0,.19-.07.43-.15l.87-.87-.07-1.39c-.21-.18-.4-.35-.6-.5a5.32,5.32,0,0,0-.55-.33,3.48,3.48,0,0,0-.72,0c-1.28.25-2.58.39-3.85.63-1.83.35-3.68.49-5.51.78-1.43.23-2.89.27-4.34.39a1.68,1.68,0,0,0-.45,0,8.81,8.81,0,0,1-2.4.23l-2,.1c-.6.05-1.2.17-1.8.17-4.93,0-9.87,0-14.8,0a5.62,5.62,0,0,1-1.36-.08,14.85,14.85,0,0,0-2.4-.2l-4.65-.36-.15,0c-1.14-.16-2.28-.36-3.42-.49-1.94-.22-3.86-.59-5.79-.88-2.33-.35-4.63-.85-6.92-1.37-3.42-.77-6.8-1.71-10.13-2.78a119.69,119.69,0,0,1-13.73-5.35A104.37,104.37,0,0,1,173.81,152a75.73,75.73,0,0,1-6.89-5.62c-1.92-1.79-3.75-3.66-5.6-5.51a62.66,62.66,0,0,1-4.82-5.6,82,82,0,0,1-5.62-8.2,78.41,78.41,0,0,1-4.7-9.11,75.26,75.26,0,0,1-3.35-9.34,71.34,71.34,0,0,1-1.82-7.91q-.45-2.66-.73-5.36c-.24-2.25-.35-4.5-.47-6.76-.16-2.87.17-5.73.29-8.59a30.11,30.11,0,0,1,.33-3.14c.24-1.64.56-3.26.8-4.9a64.78,64.78,0,0,1,1.42-6.61,88.2,88.2,0,0,1,4.1-12.26A3.17,3.17,0,0,0,146.9,51ZM74.53,78a49.33,49.33,0,0,0,9-.58c1.73-.31,3.46-.57,5.16-1a47.72,47.72,0,0,0,11.4-4.19,28.66,28.66,0,0,0,7.72-5.71,16.69,16.69,0,0,0,3.24-4.88,11.74,11.74,0,0,0,.62-7.51,13.25,13.25,0,0,0-3.78-6.23,22,22,0,0,0-5.12-3.71,39.68,39.68,0,0,0-12.52-4c-.85-.13-1.69-.21-2.54-.32a61.52,61.52,0,0,0-7-.47c-.85,0-1.7.17-2.55.17a55.08,55.08,0,0,0-6.29.59,47.68,47.68,0,0,0-5.45,1.06,46.9,46.9,0,0,0-11.75,4.54,27.93,27.93,0,0,0-7.41,5.87,13.15,13.15,0,0,0-3.57,10.52,8.67,8.67,0,0,0,.13.89,13.6,13.6,0,0,0,4,6.65,24.79,24.79,0,0,0,7.84,5A45.08,45.08,0,0,0,72,78ZM91,28.9a1.7,1.7,0,0,0-1.08-1.39l-1,0a6.79,6.79,0,0,0-.6.53,5.74,5.74,0,0,0-.41.58c0,1.35,0,1.38,1.29,1.84C90.47,30.06,90.47,30.06,91,28.9ZM101.67,27h-1.22a2,2,0,0,0-1.12,1.57c.22.72.57,1.33,1.41,1.35s1.17-.48,1.57-1.1l-.06-1.18Z"/><path class="cls-2" d="M29,167.28A35.18,35.18,0,0,1,23,163.85a44,44,0,0,1-7.8-7.08,47.92,47.92,0,0,1-7.62-12.24,49.25,49.25,0,0,1-3.3-10.76,64,64,0,0,1-.92-7.16c-.09-1.41-.2-2.81-.16-4.21.06-2.06.22-4.11.45-6.16.21-1.9.54-3.76.91-5.64a55.08,55.08,0,0,1,2-7.24,58.76,58.76,0,0,1,7.18-14.21c.67-1,1.42-2,2.12-2.89.37-.05.46.2.56.41A52.52,52.52,0,0,0,20,92.8a45.32,45.32,0,0,0,5.46,6.77c-.8,1.78-1.59,3.51-2.36,5.25a60.57,60.57,0,0,0-3.3,10c-.46,2-.84,3.92-1.16,5.9-.22,1.33-.26,2.69-.41,4a45.94,45.94,0,0,0-.24,6.63c.06,2.11.25,4.21.5,6.3.17,1.4.38,2.78.63,4.17a67.77,67.77,0,0,0,2.6,9.88,76.58,76.58,0,0,0,6.16,13.55C28.21,165.83,28.5,166.41,29,167.28Z"/><path class="cls-3" d="M74.11,74.74c-1.08,0-2.69,0-4.3-.11-1,0-1.89-.19-2.83-.33s-2.08-.33-3.11-.55a31.76,31.76,0,0,1-11-4.2,15.72,15.72,0,0,1-4.57-4.33,10.54,10.54,0,0,1-1.51-4.52,12.39,12.39,0,0,1,.82-3.65,15.41,15.41,0,0,1,4.47-5.62,33.54,33.54,0,0,1,9.29-5.2,48,48,0,0,1,8.81-2.46c1.33-.24,2.66-.43,4-.62s2.5-.17,3.75-.29a24.87,24.87,0,0,1,3.76-.2c1.65.08,3.32.11,5,.3a47,47,0,0,1,10.53,2.33,25.85,25.85,0,0,1,7,3.72,12.36,12.36,0,0,1,3.74,4.47,8.27,8.27,0,0,1,.07,7,14,14,0,0,1-3.67,4.92A31.57,31.57,0,0,1,94.92,71a47.58,47.58,0,0,1-7.3,2.3c-1.36.31-2.75.53-4.12.78A55,55,0,0,1,74.11,74.74Zm-16.77-12a4.4,4.4,0,0,0,.3.33,2.7,2.7,0,0,0,1.57.41c1.2,0,2.41,0,3.61.15.79.07,1.56.31,2.35.45a1.7,1.7,0,0,0,1.43-.26,1.4,1.4,0,0,0,.59-1.11,1.88,1.88,0,0,0-1.35-1.52,10.15,10.15,0,0,0-3.07-.65c-1.45-.07-2.91,0-4.38,0a1.83,1.83,0,0,0-1.08.76A2,2,0,0,0,57.34,62.7Z"/><path class="cls-2" d="M149.15,45.07s-.28-5.07,9.08-6.45,14.94-.82,25.56,5.33,33.52,22.35,50.55,40.5,57,76.26,57,76.26l4.19,9.5s-20.67,3.07-27.38,4.19-48,7.54-81-12.57-46.5-41.16-48-64.53S149.15,45.07,149.15,45.07Z"/><path class="cls-4" d="M309.69,197.06c-.35.64-1.15.91-1.8,1.43a9.84,9.84,0,0,1-1.33,0c-.94-.13-1.87-.37-2.81-.48-.75-.09-1.49-.2-2.23-.32-1.64-.27-3.28-.44-4.92-.68s-3.16-.51-4.83-.78c-.27.21-.61.43-.9.7a105.92,105.92,0,0,1-14.55,11.47,103.59,103.59,0,0,1-9,5.44c-2.58,1.36-5.15,2.74-7.77,4s-5,2.23-7.57,3.35c-1.05.47-2.07,1-3.15,1.39l-3.25,1.19a178.68,178.68,0,0,1-18.41,5.52q-4.59,1.13-9.25,2c-2.37.42-4.72.88-7.11,1.22-1.38.2-2.76.44-4.16.58-1.14.12-2.28.36-3.42.5-.94.13-1.89.16-2.84.29-1.59.23-3.2.27-4.8.4-.5,0-1,.13-1.5.16-.9.06-1.8.1-2.71.14a10.68,10.68,0,0,0-2.25.18,5.31,5.31,0,0,1-1.2.07c-2.37,0-4.73.06-7.1.11-.8,0-1.6.1-2.4.14a10.85,10.85,0,0,1-1.51,0c-2.61-.26-5.23-.16-7.85-.17,0,0-.08,0-.14.08-.22.18-.15.45-.14.68a23.85,23.85,0,0,0,.21,3.16,10.92,10.92,0,0,1,.08,1.81c0,2,0,4,.11,6,.15,2.61.11,5.23.31,7.84.11,1.45.15,2.91.25,4.36.07.9.18,1.8.24,2.7a15.31,15.31,0,0,0,.24,2.7,2.22,2.22,0,0,1,0,.45l.39,5.57a3.05,3.05,0,0,0,.08.74,2.25,2.25,0,0,1-1,2.63l-.21.14a21.8,21.8,0,0,0-3.06.95,16.86,16.86,0,0,0-2.89,1.26,1.33,1.33,0,0,1-1.68-.1,1.62,1.62,0,0,1-.58-1.89,1.86,1.86,0,0,1,1.07-1.19c.61-.24,1.21-.5,1.82-.73,1-.37,2-.72,2.9-1.06a.78.78,0,0,0,.2-.75,22.9,22.9,0,0,0-.29-3.6,5.37,5.37,0,0,1,0-.9c-.07-.85-.16-1.7-.23-2.55,0-.35,0-.71-.06-1.06a30.88,30.88,0,0,0-.24-3.31c-.13-.84,0-1.71-.11-2.56-.27-3.31-.2-6.64-.39-9.95s-.08-6.74-.22-10.11a2.35,2.35,0,0,0-.28-1.54,7.21,7.21,0,0,0-.8-.12l-6.62-.36c-1.36-.42-2.79-.21-4.18-.5a35.62,35.62,0,0,0-3.74-.39c-.48-.05-1-.12-1.51-.19a4,4,0,0,0-.09.62c0,.81.08,1.61.13,2.41,0,.6.14,1.2.19,1.8.17,2.1.27,4.21.41,6.32.09,1.35.15,2.71.2,4.06.12,3.22.16,6.44.4,9.65.13,1.86.09,3.72.29,5.57s.19,3.61.28,5.42c.05.8.15,1.6.21,2.4a3.76,3.76,0,0,1,0,.75,2.06,2.06,0,0,1-2,2c-1.15.07-2.31,0-3.47,0a2.31,2.31,0,0,1-.72-.18,1.15,1.15,0,0,1-.78-1c0-.29,0-.6,0-.88a4.91,4.91,0,0,1,.47-.63,5.47,5.47,0,0,1,.68-.51,17.22,17.22,0,0,0,2.37-.14,6.57,6.57,0,0,0,0-1.93c-.06-.55-.13-1.1-.15-1.65a31.11,31.11,0,0,0-.26-4.21,4.78,4.78,0,0,1,0-.76c0-1.71-.09-3.41-.25-5.12s0-3.32-.15-5c-.2-2.71-.16-5.43-.34-8.14-.11-1.71-.13-3.41-.21-5.12,0-.85-.15-1.7-.2-2.55-.06-1.11-.08-2.21-.12-3.42a10.76,10.76,0,0,0-1.05-.35c-.79-.15-1.59-.24-2.38-.37-1.48-.22-3-.42-4.45-.69-1.82-.33-3.63-.73-5.44-1.1-1.62-.33-3.25-.62-4.86-1-3-.72-6-1.45-9-2.29-2.65-.75-5.3-1.48-7.92-2.34s-5.13-1.73-7.7-2.57c-.72-.23-1.35-.63-2-.91-3.31-1.33-6.64-2.58-9.9-4q-7.32-3.21-14.32-7.06c-4.46-2.44-8.79-5.07-13-7.93-3.82-2.61-7.52-5.38-11.07-8.36-2.08-1.75-4.06-3.61-6.08-5.43-2.17-2-4.12-4.13-6.1-6.28a70.83,70.83,0,0,1-5-6c-.92-1.26-1.87-2.49-2.91-3.86-.79-.33-1.71-.72-2.64-1.09a43,43,0,0,1-9.29-5.25,44.44,44.44,0,0,1-7.21-6.63,48.5,48.5,0,0,1-5.78-8.08A51.94,51.94,0,0,1,2.47,140a60.91,60.91,0,0,1-1.79-7.92A75.14,75.14,0,0,1,0,124.44a61.44,61.44,0,0,1,.17-6.92,44.51,44.51,0,0,1,.73-5.36c.29-1.58.62-3.15,1-4.7A63,63,0,0,1,9.14,90.3a66,66,0,0,1,5.15-7.25c.12-.15.23-.32.34-.48l-1-3A44,44,0,0,1,12,72.68c-.22-1.33-.33-2.69-.46-4-.15-1.51-.18-3-.19-4.52a47.65,47.65,0,0,1,.52-6.3A48,48,0,0,1,13.8,49,59.82,59.82,0,0,1,20.13,35.4a68,68,0,0,1,12-14.28,76.81,76.81,0,0,1,12.22-9A85.4,85.4,0,0,1,64,3.48a69.94,69.94,0,0,1,8.47-2q3-.5,5.94-.92A95.92,95.92,0,0,1,93.5.07c.8,0,1.59.18,2.39.24a16.87,16.87,0,0,1,2.24.25c1,.2,2.1.23,3.14.39s2.27.37,3.4.62a81.79,81.79,0,0,1,9.84,2.69A66.24,66.24,0,0,1,134.26,15a56.51,56.51,0,0,1,10.45,10.84,55.77,55.77,0,0,1,5.23,8.8c.39.81.69,1.67,1,2.5a6.12,6.12,0,0,0,.4.66l.57-.31a17,17,0,0,1,6.19-2.19,21.42,21.42,0,0,1,5.42-.17,34.68,34.68,0,0,1,5.61,1,59.9,59.9,0,0,1,11,4,118.71,118.71,0,0,1,17.62,10.41c4.05,2.82,8,5.81,11.78,8.93,2.42,2,4.74,4,7.11,6.08,2.87,2.46,5.59,5.07,8.34,7.65,3,2.86,6,5.84,8.91,8.82,1.8,1.83,3.56,3.7,5.3,5.59,2,2.1,3.89,4.21,5.78,6.38,2.71,3.1,5.36,6.26,8,9.4,3.24,3.78,6.33,7.68,9.37,11.63,2.82,3.66,5.54,7.4,8.28,11.13q5.71,7.78,11,15.89,4.43,6.84,8.59,13.84c3.46,5.83,6.75,11.77,9.8,17.83.81,1.61,1.52,3.28,2.29,4.92,1.36,2.91,2.77,5.8,4.08,8.73,1.08,2.43,2.07,4.9,3.06,7.37A2.79,2.79,0,0,1,309.69,197.06ZM151.15,230c-1.71-1-3.11-1.78-4.48-2.61a46.42,46.42,0,0,1-7-5.21c-1.46-1.31-2.81-2.74-4.2-4.12a56.46,56.46,0,0,1-6.83-8.43A58.57,58.57,0,0,1,122.94,199a44.82,44.82,0,0,1-2-6,46.23,46.23,0,0,1-1.19-5.73c-.25-2.05-.48-4.09-.53-6.15,0-1.57.29-3.1.33-4.66a1.92,1.92,0,0,1,.21-.72,1.52,1.52,0,0,1,2.57-.55,3.9,3.9,0,0,1,.43.54c0,.72,0,1.37,0,2s-.17,1.19-.18,1.79a39.07,39.07,0,0,0,.2,5.72c.2,1.45.37,2.89.69,4.31a51.53,51.53,0,0,0,4.06,11.62,58.32,58.32,0,0,0,8.73,13,61.63,61.63,0,0,0,8.62,8,44.58,44.58,0,0,0,13.8,7.24,39.27,39.27,0,0,0,7.08,1.56l1.29-.4,1.57.9c2.29.11,4.6.09,6.91.22a47.51,47.51,0,0,0,6.64-.1c1.85-.16,3.72-.08,5.59-.11a10,10,0,0,0,1.65-.06,24,24,0,0,1,3.16-.24c1-.07,2.1-.18,3.15-.26l4.8-.37.15,0c1.24-.17,2.48-.37,3.73-.51,2.09-.24,4.16-.58,6.25-.86s4.25-.69,6.37-1.06c2.9-.52,5.79-1.16,8.66-1.85,4.24-1,8.44-2.16,12.59-3.5a35.54,35.54,0,0,0,4.08-1.48c1.36-.63,2.82-1,4.24-1.55,4.05-1.47,8-3.19,11.92-5q5.38-2.53,10.51-5.58c2.59-1.54,5.15-3.15,7.62-4.88q4.2-2.94,8.15-6.22c1.32-1.08,2.56-2.26,3.84-3.4a1.93,1.93,0,0,1,1.12-1.79,13.47,13.47,0,0,1,1.55,0c.9.09,1.79.23,2.68.37l4.89.8,3.41.53c1,.14,2.09.27,3.14.39a2.28,2.28,0,0,0,.62-.13c-.58-1.38-1.1-2.68-1.66-4-1-2.35-2.09-4.68-3.15-7a66.82,66.82,0,0,0-3.7-7.9q-4.32-8.64-9.23-17-3.13-5.32-6.41-10.57c-2.83-4.51-5.79-8.94-8.82-13.32q-5.32-7.69-11-15.14c-3.32-4.36-6.69-8.68-10.21-12.88-2.46-2.93-4.88-5.89-7.39-8.77q-4.08-4.67-8.29-9.19c-2.33-2.51-4.72-5-7.12-7.41-1.55-1.58-3.18-3.08-4.76-4.63-2.91-2.86-5.9-5.63-8.94-8.34q-4.84-4.33-9.91-8.38c-3.3-2.65-6.67-5.19-10.14-7.6A118.66,118.66,0,0,0,180,43.66,66.82,66.82,0,0,0,171.12,40a34.89,34.89,0,0,0-7.18-1.57,20.65,20.65,0,0,0-5.71.16,12.52,12.52,0,0,0-5.49,2.3c-.48.36-.92.78-1.38,1.17a1.56,1.56,0,0,1-2.48-.22c-.12-.14-.11-.42-.5-.37-.18.27-.42.58-.63.91a47.58,47.58,0,0,1-6.65,8.18,36.76,36.76,0,0,1-10.3,7.26,19.77,19.77,0,0,1-4.56,1.48,6.69,6.69,0,0,1-4-.44,3.64,3.64,0,0,1-2.2-4.79c.12-.28.19-.58.32-.84.6-1.17,1.14-2.36,1.82-3.47q3-4.89,6.07-9.72a81,81,0,0,0,5.58-10.17A41.55,41.55,0,0,0,136.31,23a3.78,3.78,0,0,0,.08-1.8,5.55,5.55,0,0,1-.5-.38,59.06,59.06,0,0,0-5.45-4.54,62.05,62.05,0,0,0-12.55-7.14,68.67,68.67,0,0,0-11.7-3.82c-1.7-.4-3.43-.71-5.15-1-1-.17-2-.18-3-.4a17.78,17.78,0,0,0-2.39-.25c-.85-.07-1.7-.23-2.55-.24-3.17,0-6.34,0-9.52,0a2.68,2.68,0,0,0-.75,0c-1.52.39-3.1.14-4.63.5-1,.24-2.1.21-3.13.41-2.31.44-4.63.87-6.91,1.44a79.31,79.31,0,0,0-13.49,4.64,78,78,0,0,0-14,8A73.83,73.83,0,0,0,33,24.83c-1.3,1.26-2.52,2.61-3.75,3.94A53.74,53.74,0,0,0,24,35.42a57.72,57.72,0,0,0-5.2,9.51,48.6,48.6,0,0,0-2.4,7,45.73,45.73,0,0,0-1.24,6c-.21,1.65-.44,3.29-.49,4.94a41.3,41.3,0,0,0,.21,6.48c.18,1.39.36,2.78.61,4.16a43.91,43.91,0,0,0,3.13,10A49,49,0,0,0,27,96.41a1.23,1.23,0,0,0,.22.15l.48,0,1.5,2.77a4,4,0,0,1-.57,1.55c-.86,1.81-1.74,3.62-2.53,5.46a61.35,61.35,0,0,0-4.21,15.64,51.81,51.81,0,0,0-.52,5.55,59.19,59.19,0,0,0,.21,7.53c.19,1.6.38,3.19.61,4.78a58.6,58.6,0,0,0,2,8.79,74.66,74.66,0,0,0,7.44,16.59,97.4,97.4,0,0,0,12.28,16.2c2.47,2.59,5,5.11,7.68,7.48,2.19,1.94,4.42,3.82,6.72,5.6,3.11,2.4,6.31,4.65,9.61,6.79q6.08,3.94,12.47,7.32a178.37,178.37,0,0,0,18.06,8.28c4.06,1.59,8.16,3.09,12.32,4.38.19.06.43.07.56.2a3.53,3.53,0,0,0,1.52.62c2.11.65,4.22,1.3,6.35,1.85,3.68,1,7.37,1.9,11.09,2.71,2.83.62,5.68,1.2,8.55,1.65,1.73.28,3.45.59,5.18.85,1,.15,2,.35,3,.5s2.09.26,3.13.37C150.32,230,150.57,230,151.15,230ZM29,167.28c-.46-.87-.75-1.45-1.07-2a76.58,76.58,0,0,1-6.16-13.55,67.77,67.77,0,0,1-2.6-9.88c-.25-1.39-.46-2.77-.63-4.17-.25-2.09-.44-4.19-.5-6.3a45.94,45.94,0,0,1,.24-6.63c.15-1.35.19-2.71.41-4,.32-2,.7-3.95,1.16-5.9a60.57,60.57,0,0,1,3.3-10c.77-1.74,1.56-3.47,2.36-5.25A45.32,45.32,0,0,1,20,92.8a52.52,52.52,0,0,1-3.55-6.13c-.1-.21-.19-.46-.56-.41-.7.94-1.45,1.89-2.12,2.89A58.76,58.76,0,0,0,6.6,103.36a55.08,55.08,0,0,0-2,7.24c-.37,1.88-.7,3.74-.91,5.64-.23,2.05-.39,4.1-.45,6.16,0,1.4.07,2.8.16,4.21a64,64,0,0,0,.92,7.16,49.25,49.25,0,0,0,3.3,10.76,47.92,47.92,0,0,0,7.62,12.24,44,44,0,0,0,7.8,7.08A35.18,35.18,0,0,0,29,167.28ZM147.29,36.85a44.42,44.42,0,0,0-3.89-7.14,33.81,33.81,0,0,0-4-5.12c-.05-.05-.16,0-.3,0a3,3,0,0,0-.25.51,47.2,47.2,0,0,1-5.48,12.84c-2.27,3.79-4.66,7.51-7,11.28A41.93,41.93,0,0,0,123.63,54a3.38,3.38,0,0,0-.48,1.42c.09.12.15.28.27.35a2.78,2.78,0,0,0,2,.41,15.32,15.32,0,0,0,2.33-.6,30.71,30.71,0,0,0,9.78-6.11A42.39,42.39,0,0,0,144.78,41C145.66,39.65,146.53,38.31,147.29,36.85Z"/><path class="cls-5" d="M143.4,29.71a33.81,33.81,0,0,0-4-5.12c-.05-.05-.16,0-.3,0a3,3,0,0,0-.25.51,47.2,47.2,0,0,1-5.48,12.84c-2.27,3.79-4.66,7.51-7,11.28A41.93,41.93,0,0,0,123.63,54a3.38,3.38,0,0,0-.48,1.42c.09.12.15.28.27.35a2.78,2.78,0,0,0,2,.41,15.32,15.32,0,0,0,2.33-.6,30.71,30.71,0,0,0,9.78-6.11A42.39,42.39,0,0,0,144.78,41c.88-1.35,1.75-2.69,2.51-4.15A44.42,44.42,0,0,0,143.4,29.71Z"/><path class="cls-4" d="M146.9,51a3.17,3.17,0,0,1-.15,2.05,88.2,88.2,0,0,0-4.1,12.26,64.78,64.78,0,0,0-1.42,6.61c-.24,1.64-.56,3.26-.8,4.9A30.11,30.11,0,0,0,140.1,80c-.12,2.86-.45,5.72-.29,8.59.12,2.26.23,4.51.47,6.76q.28,2.7.73,5.36a71.34,71.34,0,0,0,1.82,7.91,75.26,75.26,0,0,0,3.35,9.34,78.41,78.41,0,0,0,4.7,9.11,82,82,0,0,0,5.62,8.2,62.66,62.66,0,0,0,4.82,5.6c1.85,1.85,3.68,3.72,5.6,5.51a75.73,75.73,0,0,0,6.89,5.62,104.37,104.37,0,0,0,17.88,10.56,119.69,119.69,0,0,0,13.73,5.35c3.33,1.07,6.71,2,10.13,2.78,2.29.52,4.59,1,6.92,1.37,1.93.29,3.85.66,5.79.88,1.14.13,2.28.33,3.42.49l.15,0,4.65.36a14.85,14.85,0,0,1,2.4.2,5.62,5.62,0,0,0,1.36.08c4.93,0,9.87,0,14.8,0,.6,0,1.2-.12,1.8-.17l2-.1a8.81,8.81,0,0,0,2.4-.23,1.68,1.68,0,0,1,.45,0c1.45-.12,2.91-.16,4.34-.39,1.83-.29,3.68-.43,5.51-.78,1.27-.24,2.57-.38,3.85-.63a3.48,3.48,0,0,1,.72,0,5.32,5.32,0,0,1,.55.33c.2.15.39.32.6.5l.07,1.39-.87.87c-.24.08-.33.13-.43.15-1.68.29-3.35.6-5,.86-1,.17-2.09.26-3.13.39l-4,.5-.3.05c-1.55.11-3.1.24-4.65.34s-3.11.26-4.66.27c-4.53,0-9.06,0-13.59,0-.55,0-1.1-.11-1.65-.16a4,4,0,0,0-.6-.05,42.55,42.55,0,0,1-5.86-.42,34.19,34.19,0,0,1-3.88-.46c-.77-.17-1.58-.19-2.38-.33-1.57-.28-3.17-.42-4.75-.71-2-.35-3.93-.76-5.88-1.2q-5.49-1.25-10.87-3a119.34,119.34,0,0,1-12.23-4.61,106.63,106.63,0,0,1-19-10.71c-2.3-1.63-4.53-3.34-6.67-5.17s-4.47-3.9-6.54-6a88.38,88.38,0,0,1-12.38-16.11,80.16,80.16,0,0,1-7.93-18,67.31,67.31,0,0,1-2.07-8.77c-.27-1.63-.64-3.25-.79-4.89-.19-2-.45-4-.45-6,0-1.3-.17-2.61-.15-3.91,0-2.21.07-4.43.28-6.63s.45-4.18.75-6.27a99.29,99.29,0,0,1,5-19.18c.38-1.08.83-2.15,1.26-3.22a2,2,0,0,1,1.09-1.18,1.31,1.31,0,0,1,1.41.15C146.53,50.69,146.76,50.89,146.9,51Z"/><path class="cls-4" d="M74.53,78H72a45.08,45.08,0,0,1-16.39-3.35,24.79,24.79,0,0,1-7.84-5,13.6,13.6,0,0,1-4-6.65,8.67,8.67,0,0,1-.13-.89,13.15,13.15,0,0,1,3.57-10.52,27.93,27.93,0,0,1,7.41-5.87A46.9,46.9,0,0,1,66.37,41.2a47.68,47.68,0,0,1,5.45-1.06,55.08,55.08,0,0,1,6.29-.59c.85,0,1.7-.19,2.55-.17a61.52,61.52,0,0,1,7,.47c.85.11,1.69.19,2.54.32a39.68,39.68,0,0,1,12.52,4,22,22,0,0,1,5.12,3.71,13.25,13.25,0,0,1,3.78,6.23,11.74,11.74,0,0,1-.62,7.51,16.69,16.69,0,0,1-3.24,4.88,28.66,28.66,0,0,1-7.72,5.71,47.72,47.72,0,0,1-11.4,4.19c-1.7.41-3.43.67-5.16,1A49.33,49.33,0,0,1,74.53,78Zm-.42-3.26a55,55,0,0,0,9.39-.63c1.37-.25,2.76-.47,4.12-.78a47.58,47.58,0,0,0,7.3-2.3,31.57,31.57,0,0,0,9.39-5.62A14,14,0,0,0,108,60.49a8.27,8.27,0,0,0-.07-7A12.36,12.36,0,0,0,104.17,49a25.85,25.85,0,0,0-7-3.72A47,47,0,0,0,86.62,43c-1.64-.19-3.31-.22-5-.3a24.87,24.87,0,0,0-3.76.2c-1.25.12-2.5.12-3.75.29s-2.67.38-4,.62a48,48,0,0,0-8.81,2.46,33.54,33.54,0,0,0-9.29,5.2,15.41,15.41,0,0,0-4.47,5.62,12.39,12.39,0,0,0-.82,3.65,10.54,10.54,0,0,0,1.51,4.52,15.72,15.72,0,0,0,4.57,4.33,31.76,31.76,0,0,0,11,4.2c1,.22,2.07.39,3.11.55s1.88.28,2.83.33C71.42,74.71,73,74.72,74.11,74.74Z"/><path class="cls-6" d="M91,28.9c-.5,1.16-.5,1.16-1.84,1.61-1.3-.46-1.31-.49-1.29-1.84a5.74,5.74,0,0,1,.41-.58,6.79,6.79,0,0,1,.6-.53l1,0A1.7,1.7,0,0,1,91,28.9Z"/><path class="cls-6" d="M101.67,27l.58.64.06,1.18c-.4.62-.84,1.12-1.57,1.1s-1.19-.63-1.41-1.35A2,2,0,0,1,100.45,27Z"/><path class="cls-4" d="M57.34,62.7a2,2,0,0,1,0-1.45,1.83,1.83,0,0,1,1.08-.76c1.47,0,2.93-.06,4.38,0a10.15,10.15,0,0,1,3.07.65,1.88,1.88,0,0,1,1.35,1.52,1.4,1.4,0,0,1-.59,1.11,1.7,1.7,0,0,1-1.43.26c-.79-.14-1.56-.38-2.35-.45-1.2-.11-2.41-.13-3.61-.15A2.7,2.7,0,0,1,57.64,63,4.4,4.4,0,0,1,57.34,62.7Z"/></g></g></svg>